<svg id="svg" version="1.1" width="400" height="164.37204414083027" viewBox="0 0 400 164.37204414083027" xmlns="http://www.w3.org/2000/svg" xmlns:xlink="http://www.w3.org/1999/xlink" ><g id="svgg"><path id="path0" d="M156.456 0.205 C 155.729 0.356,155.182 0.741,154.556 1.541 C 154.048 2.189,154.002 3.216,154.006 13.667 C 154.011 26.722,154.267 44.518,154.452 44.651 C 154.527 44.706,154.677 45.087,154.785 45.500 C 155.012 46.368,155.952 48.167,156.179 48.167 C 156.264 48.167,156.333 48.261,156.333 48.376 C 156.333 48.755,158.230 50.407,159.250 50.917 C 159.800 51.192,160.303 51.497,160.367 51.596 C 160.431 51.694,160.787 51.875,161.159 51.997 C 161.530 52.120,161.833 52.275,161.833 52.343 C 161.833 52.411,162.208 52.601,162.667 52.766 C 163.125 52.931,163.500 53.118,163.500 53.182 C 163.500 53.294,166.189 54.667,166.407 54.667 C 166.466 54.667,166.605 54.746,166.715 54.842 C 166.939 55.037,167.418 55.297,169.500 56.350 C 170.279 56.745,170.942 57.127,170.972 57.200 C 171.003 57.273,171.104 57.333,171.197 57.333 C 171.447 57.333,174.241 58.712,174.306 58.867 C 174.336 58.940,174.443 59.000,174.544 59.000 C 174.740 59.000,180.528 61.839,180.667 62.004 C 180.713 62.058,181.012 62.206,181.333 62.333 C 181.654 62.460,182.596 62.915,183.427 63.345 C 184.258 63.775,185.176 64.179,185.469 64.243 C 185.761 64.307,186.000 64.423,186.000 64.500 C 186.000 64.578,186.262 64.727,186.583 64.833 C 186.904 64.939,187.167 65.095,187.167 65.180 C 187.167 65.264,187.249 65.333,187.350 65.333 C 187.560 65.333,190.374 66.677,190.500 66.838 C 190.546 66.896,190.996 67.088,191.500 67.263 C 192.004 67.439,192.510 67.670,192.623 67.778 C 192.737 67.885,193.074 68.024,193.373 68.086 C 193.672 68.148,194.070 68.296,194.258 68.415 C 194.446 68.534,195.084 68.765,195.675 68.928 C 196.266 69.092,196.790 69.285,196.840 69.357 C 197.206 69.894,201.667 69.858,201.667 69.318 C 201.667 69.235,201.766 69.167,201.886 69.167 C 202.713 69.167,203.833 68.635,203.833 68.244 C 203.833 68.018,203.771 67.833,203.695 67.833 C 203.619 67.833,203.424 67.215,203.262 66.458 C 203.101 65.702,202.905 65.006,202.828 64.913 C 202.751 64.819,202.563 64.369,202.409 63.913 C 202.084 62.947,201.002 61.809,200.097 61.482 C 199.769 61.363,199.500 61.222,199.500 61.168 C 199.500 61.113,199.088 60.929,198.583 60.757 C 198.079 60.586,197.667 60.391,197.667 60.323 C 197.667 60.255,197.292 60.065,196.833 59.900 C 196.375 59.736,196.000 59.544,196.000 59.474 C 196.000 59.404,195.700 59.257,195.333 59.147 C 194.967 59.037,194.667 58.892,194.667 58.824 C 194.667 58.756,194.292 58.565,193.833 58.400 C 193.375 58.236,193.000 58.057,193.000 58.004 C 193.000 57.950,192.625 57.761,192.167 57.583 C 191.708 57.405,191.333 57.201,191.333 57.130 C 191.333 57.058,191.254 57.000,191.157 57.000 C 190.962 57.000,188.133 55.642,188.000 55.485 C 187.954 55.430,187.560 55.252,187.125 55.087 C 186.690 54.923,186.333 54.738,186.333 54.678 C 186.333 54.617,186.052 54.468,185.708 54.346 C 185.365 54.225,184.971 54.035,184.833 53.924 C 184.696 53.812,184.321 53.622,184.000 53.500 C 183.679 53.378,183.304 53.186,183.167 53.072 C 183.029 52.959,182.598 52.772,182.208 52.657 C 181.819 52.542,181.500 52.399,181.500 52.340 C 181.500 52.281,181.125 52.098,180.667 51.933 C 180.208 51.768,179.833 51.581,179.833 51.516 C 179.833 51.452,179.458 51.264,179.000 51.100 C 178.542 50.935,178.167 50.747,178.167 50.683 C 178.167 50.619,177.792 50.431,177.333 50.266 C 176.875 50.101,176.500 49.911,176.500 49.843 C 176.500 49.775,176.200 49.621,175.833 49.500 C 175.467 49.379,175.167 49.225,175.167 49.157 C 175.167 49.089,174.792 48.899,174.333 48.734 C 173.875 48.569,173.500 48.384,173.500 48.323 C 173.500 48.262,173.144 48.077,172.708 47.913 C 172.273 47.748,171.879 47.563,171.833 47.500 C 171.787 47.437,171.394 47.252,170.958 47.087 C 170.523 46.923,170.167 46.735,170.167 46.671 C 170.167 46.606,169.863 46.453,169.492 46.331 C 169.121 46.208,168.764 46.025,168.700 45.924 C 168.636 45.823,168.265 45.600,167.875 45.428 C 167.485 45.257,167.167 45.057,167.167 44.986 C 167.167 44.914,167.035 44.814,166.874 44.763 C 165.926 44.462,164.333 42.404,164.333 41.480 C 164.333 41.308,164.258 41.167,164.167 41.167 C 164.075 41.167,164.000 40.834,164.000 40.427 C 164.000 40.019,164.075 39.640,164.167 39.583 C 164.258 39.527,164.333 39.268,164.333 39.008 C 164.333 38.310,164.821 35.996,165.095 35.391 C 165.226 35.103,165.333 34.761,165.333 34.633 C 165.333 34.396,166.482 34.411,166.667 34.651 C 166.712 34.710,167.181 34.892,167.708 35.055 C 168.235 35.217,168.667 35.422,168.667 35.509 C 168.667 35.595,168.751 35.667,168.854 35.667 C 168.958 35.667,169.935 36.117,171.027 36.667 C 172.119 37.217,173.122 37.667,173.256 37.667 C 173.390 37.667,173.500 37.727,173.500 37.800 C 173.500 37.874,173.875 38.069,174.333 38.234 C 174.792 38.399,175.167 38.586,175.167 38.650 C 175.167 38.715,175.542 38.902,176.000 39.067 C 176.458 39.232,176.833 39.434,176.833 39.517 C 176.833 39.599,176.914 39.667,177.013 39.667 C 177.279 39.667,179.741 40.867,179.806 41.028 C 179.836 41.104,179.943 41.167,180.043 41.167 C 180.143 41.167,181.881 41.985,183.904 42.984 C 185.928 43.984,187.771 44.856,188.000 44.923 C 188.229 44.990,188.454 45.097,188.500 45.160 C 188.626 45.333,194.407 48.167,194.635 48.167 C 194.744 48.167,194.833 48.234,194.833 48.317 C 194.833 48.399,195.208 48.601,195.667 48.766 C 196.125 48.931,196.500 49.116,196.500 49.177 C 196.500 49.238,196.854 49.423,197.287 49.589 C 197.720 49.754,198.151 49.954,198.245 50.034 C 198.498 50.247,202.482 52.167,202.671 52.167 C 202.760 52.167,202.833 52.226,202.833 52.299 C 202.833 52.372,203.246 52.571,203.750 52.743 C 204.254 52.914,204.667 53.109,204.667 53.177 C 204.667 53.245,205.042 53.435,205.500 53.600 C 205.958 53.764,206.333 53.943,206.333 53.996 C 206.333 54.050,206.708 54.239,207.167 54.417 C 207.625 54.595,208.000 54.787,208.000 54.843 C 208.000 54.900,208.300 55.046,208.667 55.167 C 209.033 55.288,209.333 55.439,209.333 55.504 C 209.333 55.569,209.690 55.756,210.125 55.920 C 210.560 56.085,210.954 56.266,211.000 56.323 C 211.046 56.379,211.421 56.569,211.833 56.744 C 212.246 56.919,212.702 57.161,212.846 57.281 C 212.991 57.402,213.167 57.500,213.237 57.500 C 213.410 57.500,215.895 58.722,216.000 58.858 C 216.046 58.918,216.477 59.095,216.958 59.252 C 217.440 59.410,217.833 59.593,217.833 59.659 C 217.833 59.726,218.129 59.878,218.491 59.997 C 218.853 60.117,219.188 60.316,219.236 60.440 C 219.284 60.565,219.423 60.667,219.544 60.667 C 220.929 60.667,221.593 63.587,220.541 65.051 C 220.243 65.465,220.000 65.859,220.000 65.926 C 220.000 65.993,219.849 66.206,219.664 66.399 C 219.480 66.592,218.861 67.274,218.289 67.914 C 216.619 69.786,214.127 72.167,213.839 72.167 C 213.739 72.167,213.612 72.282,213.558 72.423 C 213.504 72.564,213.262 72.787,213.021 72.918 C 212.780 73.050,212.249 73.460,211.839 73.829 C 211.430 74.198,211.003 74.500,210.889 74.500 C 210.776 74.500,210.623 74.602,210.550 74.727 C 210.477 74.853,210.173 75.079,209.875 75.232 C 209.577 75.384,209.332 75.563,209.331 75.629 C 209.330 75.696,209.030 75.893,208.665 76.068 C 208.299 76.244,208.000 76.450,208.000 76.527 C 208.000 76.604,207.924 76.667,207.830 76.667 C 207.737 76.667,207.343 76.870,206.955 77.117 C 206.567 77.365,206.025 77.690,205.750 77.839 C 204.365 78.591,204.077 78.759,204.000 78.860 C 203.953 78.920,203.578 79.103,203.166 79.265 C 202.754 79.427,202.379 79.608,202.333 79.665 C 202.228 79.798,199.875 80.917,199.375 81.073 C 199.169 81.137,199.000 81.251,199.000 81.326 C 199.000 81.402,198.794 81.515,198.542 81.578 C 198.290 81.641,197.726 81.872,197.289 82.091 C 195.773 82.851,193.672 82.769,192.361 81.899 C 192.025 81.676,191.637 81.422,191.500 81.333 C 191.362 81.245,190.313 80.547,189.167 79.782 C 188.021 79.016,186.783 78.192,186.417 77.949 C 186.050 77.707,185.637 77.410,185.500 77.291 C 185.362 77.172,185.025 76.963,184.750 76.829 C 184.475 76.694,184.174 76.486,184.080 76.368 C 183.987 76.250,183.749 76.062,183.551 75.951 C 183.353 75.841,182.736 75.431,182.181 75.042 C 181.625 74.652,181.097 74.333,181.008 74.333 C 180.918 74.333,180.765 74.183,180.667 74.000 C 180.569 73.817,180.420 73.667,180.337 73.667 C 180.185 73.667,177.487 71.873,177.333 71.669 C 177.287 71.608,176.987 71.414,176.667 71.237 C 176.346 71.061,176.023 70.823,175.950 70.708 C 175.877 70.594,175.746 70.500,175.660 70.500 C 175.517 70.500,174.581 69.849,173.500 68.999 C 173.271 68.819,172.990 68.670,172.875 68.669 C 172.760 68.668,172.667 68.599,172.667 68.516 C 172.667 68.433,172.319 68.152,171.894 67.891 C 170.917 67.291,170.600 67.081,169.351 66.208 C 168.793 65.819,168.265 65.500,168.177 65.500 C 168.089 65.500,167.957 65.398,167.883 65.273 C 167.810 65.147,167.495 64.915,167.182 64.755 C 166.870 64.595,166.462 64.323,166.276 64.149 C 166.090 63.975,165.847 63.833,165.736 63.833 C 165.626 63.833,165.492 63.721,165.440 63.583 C 165.387 63.446,165.258 63.333,165.153 63.333 C 165.047 63.333,164.604 63.071,164.167 62.750 C 163.730 62.429,163.288 62.167,163.186 62.167 C 163.084 62.167,163.000 62.095,163.000 62.008 C 163.000 61.920,162.719 61.718,162.375 61.558 C 162.031 61.399,161.696 61.180,161.629 61.073 C 161.562 60.965,161.281 60.783,161.004 60.668 C 160.727 60.553,160.500 60.411,160.500 60.351 C 160.500 60.291,160.219 60.095,159.875 59.915 C 159.531 59.734,159.190 59.492,159.117 59.377 C 159.043 59.261,158.886 59.167,158.768 59.167 C 158.649 59.167,158.416 59.017,158.250 58.833 C 157.780 58.315,157.364 58.431,156.447 59.338 L 155.600 60.176 155.810 60.959 C 155.925 61.390,156.079 61.781,156.152 61.829 C 156.225 61.877,156.382 62.217,156.500 62.583 C 156.618 62.950,156.761 63.288,156.817 63.333 C 156.873 63.379,157.020 63.717,157.144 64.083 C 157.458 65.014,159.172 68.529,159.443 68.800 C 159.566 68.923,159.667 69.098,159.667 69.188 C 159.667 69.278,159.985 69.806,160.375 70.362 C 160.765 70.917,161.181 71.550,161.301 71.769 C 161.420 71.988,161.589 72.167,161.676 72.167 C 161.762 72.167,161.833 72.274,161.833 72.405 C 161.833 72.535,162.021 72.790,162.250 72.970 C 162.479 73.150,162.667 73.366,162.667 73.450 C 162.667 73.533,162.929 73.856,163.250 74.167 C 163.571 74.478,163.833 74.791,163.833 74.863 C 163.833 75.196,168.362 79.344,170.136 80.636 C 170.348 80.790,170.654 81.029,170.817 81.167 C 171.266 81.547,171.718 81.832,172.042 81.941 C 172.202 81.995,172.333 82.103,172.333 82.182 C 172.333 82.260,172.577 82.450,172.875 82.602 C 173.173 82.755,173.454 82.931,173.500 82.994 C 173.546 83.057,173.846 83.253,174.167 83.429 C 174.487 83.606,174.810 83.844,174.883 83.958 C 174.957 84.073,175.120 84.167,175.246 84.167 C 175.373 84.167,175.580 84.270,175.707 84.397 C 175.834 84.524,176.233 84.789,176.594 84.985 C 176.955 85.181,177.550 85.525,177.917 85.750 C 178.283 85.974,179.146 86.463,179.833 86.836 C 180.521 87.209,181.196 87.588,181.333 87.678 C 181.471 87.768,181.921 88.000,182.333 88.194 C 182.746 88.389,183.121 88.597,183.167 88.658 C 183.213 88.719,183.512 88.873,183.833 89.000 C 184.154 89.127,184.469 89.315,184.534 89.419 C 184.598 89.523,184.954 89.708,185.325 89.831 C 185.696 89.953,186.000 90.109,186.000 90.177 C 186.000 90.244,186.375 90.435,186.833 90.600 C 187.292 90.764,187.667 90.954,187.667 91.022 C 187.667 91.089,187.835 91.197,188.042 91.262 C 188.248 91.326,188.876 91.589,189.437 91.845 C 189.999 92.101,190.749 92.364,191.104 92.429 C 191.459 92.495,191.790 92.609,191.839 92.684 C 192.136 93.137,198.346 93.148,198.658 92.696 C 198.709 92.623,199.256 92.428,199.875 92.263 C 200.494 92.098,201.000 91.910,201.000 91.846 C 201.000 91.782,201.266 91.624,201.591 91.497 C 201.917 91.369,202.267 91.163,202.370 91.039 C 202.473 90.915,202.805 90.710,203.108 90.584 C 203.411 90.457,203.755 90.270,203.871 90.168 C 204.074 89.990,204.553 89.718,205.833 89.053 C 206.154 88.886,206.454 88.712,206.500 88.665 C 206.546 88.618,206.883 88.431,207.250 88.248 C 207.617 88.066,207.954 87.871,208.000 87.815 C 208.046 87.760,208.421 87.553,208.833 87.356 C 209.582 86.999,211.915 85.763,213.333 84.971 C 213.746 84.740,214.346 84.409,214.667 84.234 C 214.987 84.060,215.275 83.860,215.306 83.792 C 215.336 83.723,215.438 83.667,215.531 83.667 C 215.625 83.667,216.035 83.442,216.443 83.167 C 216.850 82.892,217.240 82.667,217.310 82.667 C 217.380 82.667,217.583 82.535,217.760 82.374 C 217.938 82.213,218.306 81.937,218.579 81.762 C 218.852 81.587,219.152 81.378,219.246 81.297 C 219.340 81.217,219.829 80.847,220.333 80.475 C 221.535 79.589,223.880 77.573,224.708 76.713 C 226.311 75.050,229.000 71.829,229.000 71.572 C 229.000 71.516,229.156 71.270,229.347 71.026 C 229.929 70.283,230.833 68.774,230.833 68.547 C 230.833 68.430,230.901 68.333,230.983 68.333 C 231.066 68.333,231.268 67.958,231.433 67.500 C 231.598 67.042,231.785 66.667,231.850 66.667 C 231.914 66.667,232.101 66.292,232.266 65.833 C 232.431 65.375,232.612 65.000,232.669 65.000 C 232.726 65.000,232.875 64.625,233.000 64.167 C 233.125 63.708,233.280 63.333,233.345 63.333 C 233.410 63.333,233.596 62.827,233.759 62.208 C 233.922 61.590,234.112 61.007,234.182 60.914 C 234.252 60.821,234.445 60.071,234.611 59.248 C 234.776 58.424,234.964 57.711,235.027 57.664 C 235.169 57.559,235.667 54.065,235.667 53.175 C 235.667 52.805,235.756 52.498,235.875 52.458 C 236.158 52.364,236.179 41.171,235.897 40.817 C 235.794 40.689,235.660 40.307,235.600 39.969 C 235.401 38.864,233.579 36.611,232.708 36.392 C 232.502 36.340,232.333 36.241,232.333 36.171 C 232.333 36.102,231.977 35.911,231.542 35.746 C 231.106 35.582,230.713 35.396,230.667 35.333 C 230.563 35.190,230.415 35.112,226.450 33.125 C 224.666 32.231,223.123 31.500,223.020 31.500 C 222.917 31.500,222.833 31.433,222.833 31.350 C 222.833 31.268,222.458 31.065,222.000 30.900 C 221.542 30.736,221.167 30.546,221.167 30.480 C 221.167 30.414,220.904 30.273,220.583 30.167 C 220.262 30.061,220.000 29.905,220.000 29.820 C 220.000 29.736,219.918 29.667,219.817 29.667 C 219.557 29.667,216.761 28.293,216.694 28.133 C 216.664 28.060,216.566 28.000,216.476 28.000 C 216.387 28.000,215.685 27.700,214.917 27.333 C 214.148 26.967,213.440 26.667,213.343 26.667 C 213.246 26.667,213.167 26.602,213.167 26.523 C 213.167 26.443,212.810 26.244,212.375 26.080 C 211.940 25.915,211.546 25.731,211.500 25.671 C 211.378 25.511,206.358 23.072,205.625 22.817 C 205.281 22.698,205.000 22.547,205.000 22.483 C 205.000 22.419,204.625 22.232,204.167 22.067 C 203.708 21.902,203.333 21.718,203.333 21.657 C 203.333 21.596,202.921 21.416,202.417 21.257 C 201.912 21.099,201.500 20.901,201.500 20.818 C 201.500 20.735,201.416 20.667,201.312 20.667 C 201.209 20.667,200.682 20.442,200.141 20.167 C 199.599 19.892,199.052 19.667,198.924 19.667 C 198.795 19.667,198.591 19.568,198.470 19.446 C 198.349 19.325,197.877 19.084,197.422 18.910 C 196.966 18.736,196.333 18.461,196.014 18.298 C 195.696 18.136,195.075 17.955,194.634 17.897 C 194.194 17.838,193.833 17.725,193.833 17.645 C 193.833 17.456,188.381 17.455,188.264 17.645 C 188.214 17.724,187.889 17.835,187.541 17.891 C 186.603 18.041,186.355 18.307,186.159 19.375 C 185.748 21.615,187.004 23.876,189.100 24.673 C 189.320 24.757,189.500 24.887,189.500 24.963 C 189.500 25.039,189.875 25.236,190.333 25.400 C 190.792 25.565,191.167 25.753,191.167 25.817 C 191.167 25.881,191.448 26.032,191.792 26.154 C 192.135 26.275,192.529 26.465,192.667 26.576 C 192.804 26.688,193.179 26.878,193.500 27.000 C 193.821 27.122,194.196 27.312,194.333 27.424 C 194.471 27.535,194.865 27.725,195.208 27.846 C 195.552 27.968,195.833 28.119,195.833 28.183 C 195.833 28.247,196.208 28.435,196.667 28.600 C 197.125 28.764,197.500 28.953,197.500 29.020 C 197.500 29.086,197.875 29.264,198.333 29.417 C 198.792 29.569,199.167 29.748,199.167 29.814 C 199.167 29.880,199.542 30.069,200.000 30.234 C 200.458 30.399,200.833 30.589,200.833 30.657 C 200.833 30.725,201.133 30.879,201.500 31.000 C 201.867 31.121,202.167 31.275,202.167 31.343 C 202.167 31.411,202.542 31.601,203.000 31.766 C 203.458 31.931,203.833 32.119,203.833 32.183 C 203.833 32.247,204.208 32.435,204.667 32.600 C 205.125 32.764,205.500 32.952,205.500 33.016 C 205.500 33.081,205.875 33.268,206.333 33.433 C 206.792 33.598,207.167 33.787,207.167 33.853 C 207.167 33.919,207.542 34.098,208.000 34.250 C 208.458 34.402,208.833 34.581,208.833 34.647 C 208.833 34.713,209.208 34.902,209.667 35.067 C 210.125 35.232,210.500 35.422,210.500 35.490 C 210.500 35.558,210.800 35.712,211.167 35.833 C 211.533 35.954,211.833 36.109,211.833 36.177 C 211.833 36.244,212.208 36.435,212.667 36.600 C 213.125 36.764,213.500 36.948,213.500 37.008 C 213.500 37.068,213.838 37.256,214.250 37.426 C 214.662 37.596,215.000 37.787,215.000 37.851 C 215.000 37.914,215.375 38.101,215.833 38.266 C 216.292 38.431,216.667 38.620,216.667 38.686 C 216.667 38.752,217.042 38.931,217.500 39.083 C 217.958 39.236,218.334 39.410,218.334 39.472 C 218.334 39.533,218.691 39.728,219.126 39.904 C 219.561 40.081,219.954 40.273,220.000 40.330 C 220.046 40.388,220.383 40.589,220.750 40.776 C 222.253 41.545,222.598 41.746,222.906 42.033 C 223.084 42.198,223.279 42.333,223.339 42.333 C 223.570 42.333,224.720 43.581,225.183 44.334 C 225.791 45.322,225.867 47.076,225.350 48.217 C 225.177 48.602,224.940 49.235,224.824 49.625 C 224.708 50.015,224.568 50.333,224.511 50.333 C 224.454 50.333,224.260 50.676,224.079 51.095 C 223.768 51.814,223.720 51.851,223.203 51.771 C 222.616 51.680,220.786 50.848,220.694 50.631 C 220.664 50.559,220.550 50.500,220.442 50.500 C 220.334 50.500,218.972 49.863,217.414 49.084 C 215.857 48.305,214.452 47.668,214.292 47.667 C 214.131 47.667,214.000 47.599,214.000 47.517 C 214.000 47.434,213.625 47.232,213.167 47.067 C 212.708 46.902,212.333 46.715,212.333 46.650 C 212.333 46.586,211.958 46.399,211.500 46.234 C 211.042 46.069,210.667 45.881,210.667 45.817 C 210.667 45.753,210.292 45.565,209.833 45.400 C 209.375 45.236,209.000 45.046,209.000 44.980 C 209.000 44.914,208.756 44.778,208.458 44.679 C 208.160 44.580,207.548 44.312,207.097 44.083 C 206.646 43.854,206.177 43.667,206.055 43.667 C 205.933 43.667,205.833 43.599,205.833 43.517 C 205.833 43.434,205.458 43.232,205.000 43.067 C 204.542 42.902,204.167 42.715,204.167 42.650 C 204.167 42.586,203.792 42.399,203.333 42.234 C 202.875 42.069,202.500 41.881,202.500 41.817 C 202.500 41.753,202.125 41.565,201.667 41.400 C 201.208 41.236,200.833 41.041,200.833 40.967 C 200.833 40.894,200.752 40.833,200.654 40.833 C 200.555 40.833,199.928 40.571,199.261 40.250 C 198.594 39.929,197.962 39.667,197.858 39.667 C 197.753 39.667,197.667 39.602,197.667 39.523 C 197.667 39.443,197.310 39.244,196.875 39.080 C 196.440 38.915,196.046 38.729,196.000 38.667 C 195.954 38.604,195.560 38.418,195.125 38.254 C 194.690 38.089,194.333 37.890,194.333 37.811 C 194.333 37.731,194.251 37.667,194.150 37.667 C 193.891 37.667,191.095 36.293,191.028 36.133 C 190.997 36.060,190.885 35.998,190.778 35.997 C 190.671 35.995,189.689 35.545,188.596 34.997 C 187.503 34.448,186.509 34.000,186.388 34.000 C 186.266 34.000,186.167 33.925,186.167 33.833 C 186.167 33.742,186.084 33.667,185.984 33.667 C 185.764 33.667,182.952 32.317,182.833 32.155 C 182.787 32.092,182.356 31.901,181.875 31.731 C 181.394 31.561,181.000 31.372,181.000 31.311 C 181.000 31.250,180.625 31.065,180.167 30.900 C 179.708 30.736,179.333 30.546,179.333 30.480 C 179.333 30.414,179.071 30.273,178.750 30.167 C 178.429 30.061,178.167 29.920,178.167 29.853 C 178.167 29.787,177.792 29.598,177.333 29.433 C 176.875 29.268,176.500 29.081,176.500 29.016 C 176.500 28.952,176.125 28.764,175.666 28.599 C 175.207 28.434,174.797 28.243,174.755 28.174 C 174.712 28.105,172.969 27.194,170.880 26.149 C 168.792 25.105,167.046 24.212,167.000 24.167 C 166.954 24.121,166.677 23.950,166.383 23.787 C 165.416 23.250,164.333 21.882,164.333 21.197 C 164.333 21.104,164.240 20.997,164.125 20.958 C 163.865 20.872,163.868 16.852,164.128 16.689 C 164.220 16.631,164.429 15.436,164.591 14.034 C 164.909 11.288,164.991 11.113,166.125 10.761 C 166.331 10.697,166.500 10.582,166.500 10.506 C 166.500 10.430,167.175 10.232,168.000 10.065 C 168.825 9.898,169.500 9.703,169.500 9.631 C 169.500 9.559,181.200 9.500,195.500 9.500 C 212.722 9.500,221.500 9.556,221.500 9.667 C 221.500 9.758,221.686 9.833,221.913 9.833 C 223.238 9.833,225.167 11.451,225.167 12.561 C 225.167 12.696,225.260 12.837,225.375 12.875 C 225.533 12.928,225.589 13.885,225.608 16.817 C 225.632 20.463,225.854 22.833,226.172 22.833 C 226.246 22.833,226.357 23.063,226.419 23.345 C 226.481 23.626,226.637 23.896,226.766 23.946 C 226.895 23.995,227.000 24.131,227.000 24.247 C 227.000 24.855,230.162 27.167,230.995 27.167 C 231.061 27.167,231.333 27.273,231.599 27.404 C 231.866 27.534,232.571 27.734,233.167 27.847 C 233.762 27.961,234.287 28.109,234.333 28.177 C 234.379 28.245,234.773 28.354,235.208 28.419 L 236.000 28.538 236.000 16.436 C 236.000 8.479,235.943 4.333,235.833 4.333 C 235.741 4.333,235.664 3.871,235.661 3.292 C 235.656 2.311,235.419 1.667,235.063 1.667 C 234.981 1.667,234.820 1.517,234.705 1.333 C 234.591 1.150,234.393 1.000,234.266 1.000 C 234.140 1.000,233.998 0.901,233.952 0.781 C 233.905 0.660,233.476 0.435,232.998 0.281 C 231.973 -0.050,158.033 -0.124,156.456 0.205 " stroke="none" fill="#14a4cc" fill-rule="evenodd"></path><path id="path1" d="M13.292 108.374 C 12.765 108.464,12.333 108.604,12.333 108.686 C 12.333 108.767,12.197 108.833,12.030 108.833 C 11.662 108.833,10.117 109.341,10.000 109.500 C 9.954 109.563,9.560 109.748,9.125 109.913 C 8.690 110.077,8.333 110.279,8.333 110.361 C 8.333 110.443,8.202 110.557,8.042 110.614 C 7.326 110.869,5.000 113.044,5.000 113.457 C 5.000 113.573,4.921 113.667,4.825 113.667 C 4.728 113.667,4.536 113.910,4.396 114.208 C 4.257 114.506,4.004 115.013,3.835 115.333 C 3.666 115.654,3.477 116.179,3.415 116.500 C 3.353 116.820,3.235 117.124,3.152 117.176 C 2.647 117.488,2.629 124.135,3.133 124.491 C 3.205 124.542,3.370 124.912,3.499 125.314 C 3.629 125.715,3.813 126.128,3.909 126.230 C 4.005 126.333,4.346 126.814,4.667 127.299 C 5.212 128.124,6.771 129.500,7.160 129.500 C 7.255 129.500,7.333 129.569,7.333 129.652 C 7.333 129.850,9.279 130.938,9.920 131.099 C 10.191 131.167,10.499 131.309,10.605 131.414 C 10.710 131.519,11.217 131.699,11.731 131.815 C 12.246 131.930,12.667 132.083,12.667 132.156 C 12.667 132.228,13.135 132.386,13.708 132.505 C 14.281 132.625,14.787 132.774,14.833 132.836 C 14.879 132.897,15.610 133.082,16.458 133.245 C 17.306 133.408,18.000 133.592,18.000 133.654 C 18.000 133.716,18.449 133.859,18.999 133.973 C 21.372 134.463,24.687 136.487,25.161 137.736 C 25.741 139.260,24.506 142.167,23.279 142.167 C 23.169 142.167,22.780 142.330,22.414 142.531 C 21.314 143.133,15.000 143.118,15.000 142.513 C 15.000 142.454,14.658 142.305,14.241 142.182 C 13.823 142.059,13.379 141.855,13.253 141.729 C 13.127 141.603,12.959 141.500,12.881 141.500 C 12.802 141.500,12.478 141.278,12.160 141.007 C 11.843 140.735,11.526 140.510,11.455 140.507 C 11.385 140.503,10.735 139.900,10.010 139.167 C 9.286 138.433,8.608 137.833,8.505 137.833 C 8.229 137.833,7.333 138.321,7.333 138.471 C 7.333 138.542,7.072 138.694,6.752 138.810 C 6.432 138.926,6.074 139.117,5.955 139.235 C 5.837 139.353,5.199 139.773,4.537 140.168 C 3.875 140.563,3.333 140.931,3.333 140.985 C 3.333 141.040,3.090 141.193,2.792 141.325 C 2.494 141.457,2.105 141.700,1.927 141.866 C 1.749 142.031,1.543 142.167,1.469 142.167 C 1.394 142.167,1.333 142.354,1.333 142.583 C 1.333 142.813,1.391 143.000,1.462 143.000 C 1.533 143.000,1.729 143.256,1.897 143.568 C 2.247 144.219,4.455 146.500,4.734 146.500 C 4.836 146.500,5.013 146.650,5.128 146.833 C 5.242 147.017,5.448 147.167,5.585 147.167 C 5.721 147.167,5.833 147.244,5.833 147.339 C 5.833 147.433,5.965 147.558,6.125 147.616 C 6.285 147.674,6.623 147.864,6.875 148.038 C 7.676 148.594,9.540 149.492,10.113 149.600 C 10.418 149.657,10.667 149.758,10.667 149.824 C 10.667 149.890,11.248 150.086,11.958 150.260 C 12.669 150.433,13.288 150.626,13.334 150.690 C 13.789 151.309,23.497 151.305,24.000 150.686 C 24.046 150.629,24.605 150.450,25.243 150.287 C 25.881 150.124,26.443 149.929,26.493 149.853 C 26.543 149.777,26.870 149.622,27.220 149.507 C 27.570 149.393,27.894 149.202,27.940 149.082 C 27.986 148.962,28.200 148.819,28.414 148.766 C 28.861 148.653,29.276 148.323,30.767 146.895 C 31.353 146.333,31.833 145.787,31.833 145.681 C 31.833 145.576,31.936 145.450,32.062 145.402 C 32.188 145.353,32.431 144.999,32.601 144.615 C 32.771 144.231,32.998 143.826,33.104 143.715 C 33.210 143.603,33.391 143.116,33.506 142.631 C 33.621 142.147,33.779 141.708,33.857 141.657 C 34.350 141.334,34.361 135.041,33.869 134.673 C 33.803 134.624,33.605 134.152,33.431 133.625 C 33.256 133.098,33.066 132.667,33.009 132.667 C 32.952 132.667,32.762 132.423,32.588 132.125 C 32.183 131.433,30.978 130.173,30.718 130.169 C 30.608 130.168,30.421 130.035,30.301 129.874 C 30.181 129.713,29.802 129.434,29.458 129.253 C 29.115 129.072,28.833 128.874,28.833 128.812 C 28.833 128.751,28.458 128.565,28.000 128.400 C 27.542 128.236,27.167 128.049,27.167 127.986 C 27.167 127.922,26.660 127.734,26.042 127.568 C 25.423 127.402,24.822 127.173,24.706 127.059 C 24.591 126.946,24.159 126.803,23.748 126.741 C 23.337 126.679,23.000 126.572,23.000 126.502 C 23.000 126.433,22.344 126.240,21.542 126.074 C 20.740 125.908,20.046 125.722,20.000 125.661 C 19.954 125.601,19.354 125.417,18.667 125.253 C 17.979 125.089,17.342 124.898,17.250 124.828 C 17.158 124.759,16.615 124.572,16.042 124.413 C 15.469 124.253,15.000 124.063,15.000 123.991 C 15.000 123.918,14.745 123.775,14.434 123.672 C 14.123 123.570,13.654 123.302,13.393 123.076 C 13.131 122.851,12.868 122.667,12.809 122.667 C 12.244 122.666,11.401 120.260,11.655 119.374 C 11.822 118.792,13.253 117.167,13.599 117.167 C 13.715 117.167,13.909 117.068,14.030 116.947 C 14.752 116.226,20.505 116.118,21.000 116.816 C 21.046 116.881,21.456 117.074,21.912 117.245 C 22.368 117.416,22.818 117.620,22.912 117.698 C 23.006 117.776,23.556 118.151,24.133 118.531 C 24.711 118.911,25.471 119.510,25.822 119.861 C 26.538 120.578,27.214 120.698,27.765 120.208 C 27.946 120.048,28.354 119.772,28.672 119.596 C 28.990 119.419,29.287 119.224,29.333 119.161 C 29.379 119.098,29.660 118.922,29.958 118.769 C 30.256 118.616,30.500 118.426,30.500 118.347 C 30.500 118.268,30.682 118.157,30.905 118.101 C 31.128 118.045,31.413 117.897,31.538 117.771 C 31.664 117.646,32.006 117.419,32.300 117.267 C 32.593 117.116,32.833 116.932,32.833 116.860 C 32.833 116.788,33.096 116.626,33.417 116.500 C 34.024 116.262,34.204 115.781,33.750 115.606 C 33.612 115.554,33.500 115.424,33.500 115.318 C 33.500 115.090,30.904 112.500,30.675 112.500 C 30.589 112.500,30.420 112.369,30.299 112.208 C 30.050 111.879,29.559 111.538,29.125 111.392 C 28.965 111.339,28.833 111.234,28.833 111.159 C 28.833 111.085,28.533 110.892,28.167 110.730 C 27.800 110.568,27.500 110.387,27.500 110.328 C 27.500 110.269,27.069 110.078,26.542 109.903 C 26.015 109.728,25.546 109.540,25.500 109.486 C 25.454 109.431,24.892 109.248,24.250 109.079 C 23.608 108.909,23.046 108.720,23.000 108.659 C 22.669 108.218,15.442 108.005,13.292 108.374 M225.375 108.369 C 224.802 108.457,224.333 108.598,224.333 108.681 C 224.333 108.765,224.216 108.833,224.073 108.833 C 223.656 108.833,222.167 109.359,222.167 109.506 C 222.167 109.580,221.950 109.688,221.686 109.746 C 220.728 109.956,217.000 112.873,217.000 113.412 C 217.000 113.473,216.775 113.850,216.500 114.250 C 216.225 114.650,216.000 115.078,216.000 115.201 C 216.000 115.325,215.888 115.585,215.752 115.780 C 215.432 116.236,215.006 118.046,215.002 118.958 C 215.001 119.348,214.925 119.667,214.833 119.667 C 214.738 119.667,214.667 120.167,214.667 120.833 C 214.667 121.500,214.738 122.000,214.833 122.000 C 214.925 122.000,215.001 122.319,215.003 122.708 C 215.006 123.536,215.400 125.330,215.613 125.480 C 215.693 125.537,215.900 125.902,216.072 126.292 C 216.243 126.681,216.449 127.000,216.529 127.000 C 216.609 127.000,216.744 127.181,216.828 127.403 C 216.912 127.624,217.454 128.188,218.032 128.656 C 218.610 129.123,219.196 129.600,219.333 129.716 C 219.471 129.832,219.808 130.037,220.083 130.171 C 220.358 130.306,220.673 130.501,220.782 130.604 C 220.892 130.707,221.323 130.892,221.741 131.015 C 222.158 131.139,222.500 131.292,222.500 131.356 C 222.500 131.420,223.025 131.608,223.667 131.773 C 224.308 131.939,224.833 132.124,224.833 132.185 C 224.833 132.247,225.321 132.394,225.917 132.512 C 226.512 132.631,227.000 132.777,227.000 132.837 C 227.000 132.897,227.544 133.042,228.208 133.158 C 228.873 133.274,229.642 133.469,229.917 133.592 C 230.192 133.716,230.904 133.939,231.500 134.090 C 232.095 134.241,232.620 134.417,232.666 134.482 C 232.712 134.547,233.125 134.740,233.583 134.910 C 234.042 135.080,234.454 135.264,234.500 135.318 C 234.546 135.372,234.880 135.567,235.242 135.750 C 236.077 136.172,236.964 137.050,237.099 137.587 C 237.156 137.814,237.270 138.000,237.351 138.000 C 237.658 138.000,237.507 139.898,237.167 140.333 C 236.987 140.563,236.839 140.816,236.837 140.898 C 236.828 141.257,235.275 142.333,234.766 142.333 C 234.620 142.333,234.500 142.402,234.500 142.486 C 234.500 143.124,227.709 143.149,227.167 142.513 C 227.121 142.459,226.652 142.272,226.125 142.097 C 225.598 141.922,225.167 141.729,225.167 141.668 C 225.167 141.606,224.963 141.450,224.713 141.320 C 224.123 141.012,224.015 140.922,222.279 139.295 C 221.469 138.537,220.735 137.891,220.647 137.859 C 220.430 137.781,219.333 138.313,219.333 138.497 C 219.333 138.578,219.165 138.695,218.958 138.758 C 218.752 138.821,218.345 139.051,218.053 139.269 C 217.761 139.488,217.456 139.667,217.376 139.667 C 217.295 139.667,217.084 139.798,216.906 139.958 C 216.729 140.119,216.302 140.398,215.958 140.580 C 215.615 140.761,215.333 140.958,215.333 141.018 C 215.333 141.077,215.108 141.219,214.833 141.333 C 214.558 141.447,214.333 141.598,214.333 141.667 C 214.333 141.737,214.184 141.834,214.001 141.881 C 213.360 142.049,213.362 143.076,214.005 143.626 C 214.185 143.781,214.333 143.976,214.333 144.059 C 214.333 144.223,216.350 146.209,217.067 146.750 C 217.310 146.933,217.600 147.163,217.713 147.259 C 217.825 147.356,218.178 147.581,218.497 147.759 C 218.816 147.938,219.173 148.173,219.290 148.282 C 219.408 148.391,219.765 148.574,220.085 148.690 C 220.405 148.806,220.667 148.956,220.667 149.025 C 220.667 149.093,221.117 149.276,221.667 149.430 C 222.217 149.584,222.667 149.763,222.667 149.828 C 222.667 149.893,223.285 150.085,224.042 150.255 C 224.798 150.425,225.454 150.616,225.500 150.680 C 225.967 151.331,236.167 151.298,236.167 150.646 C 236.167 150.566,236.308 150.500,236.481 150.500 C 236.837 150.500,238.540 149.984,238.667 149.837 C 238.713 149.784,239.069 149.600,239.458 149.428 C 239.848 149.257,240.167 149.060,240.167 148.991 C 240.167 148.922,240.393 148.787,240.669 148.691 C 240.945 148.595,241.216 148.400,241.270 148.258 C 241.324 148.116,241.459 148.000,241.568 148.000 C 241.964 148.000,244.500 145.282,244.500 144.858 C 244.500 144.753,244.565 144.667,244.644 144.667 C 244.723 144.667,244.923 144.310,245.087 143.875 C 245.252 143.440,245.440 143.046,245.505 143.000 C 245.690 142.870,246.167 140.596,246.167 139.842 C 246.167 139.471,246.242 139.167,246.333 139.167 C 246.427 139.167,246.500 138.694,246.500 138.083 C 246.500 137.472,246.427 137.000,246.333 137.000 C 246.242 137.000,246.167 136.734,246.167 136.408 C 246.167 135.627,245.679 133.500,245.500 133.500 C 245.422 133.500,245.273 133.238,245.167 132.918 C 245.061 132.598,244.881 132.279,244.766 132.210 C 244.651 132.140,244.425 131.858,244.263 131.583 C 244.102 131.308,243.631 130.821,243.218 130.500 C 242.804 130.179,242.370 129.826,242.252 129.716 C 241.634 129.134,238.495 127.577,237.605 127.410 C 237.272 127.347,237.000 127.239,237.000 127.170 C 237.000 127.100,236.644 126.950,236.208 126.837 C 235.773 126.723,235.191 126.531,234.916 126.410 C 234.641 126.289,233.910 126.097,233.291 125.983 C 232.673 125.869,232.167 125.725,232.167 125.664 C 232.167 125.602,231.529 125.418,230.750 125.255 C 229.971 125.091,229.333 124.897,229.333 124.824 C 229.333 124.751,228.912 124.596,228.398 124.481 C 227.883 124.366,227.374 124.184,227.267 124.076 C 227.159 123.969,226.783 123.776,226.431 123.649 C 226.079 123.522,225.755 123.324,225.711 123.209 C 225.667 123.094,225.539 123.000,225.426 123.000 C 225.065 123.000,224.016 121.673,223.904 121.075 C 223.844 120.757,223.729 120.455,223.648 120.405 C 223.457 120.287,223.455 119.667,223.646 119.667 C 223.726 119.667,223.834 119.453,223.887 119.191 C 224.004 118.603,225.324 117.217,225.904 117.072 C 226.140 117.012,226.333 116.906,226.333 116.835 C 226.333 116.219,232.534 116.195,233.000 116.809 C 233.046 116.869,233.383 117.019,233.750 117.143 C 234.117 117.266,234.696 117.547,235.038 117.767 C 235.380 117.987,235.736 118.167,235.830 118.167 C 235.923 118.167,236.000 118.244,236.000 118.337 C 236.000 118.431,236.169 118.575,236.375 118.656 C 236.581 118.737,237.175 119.185,237.693 119.652 C 238.765 120.616,239.561 120.722,240.167 119.982 C 240.213 119.926,240.494 119.755,240.792 119.602 C 241.090 119.450,241.333 119.269,241.333 119.202 C 241.333 119.134,241.633 118.949,242.000 118.790 C 242.367 118.631,242.667 118.426,242.667 118.334 C 242.667 118.242,242.779 118.167,242.917 118.167 C 243.054 118.167,243.300 118.035,243.462 117.875 C 243.625 117.715,244.038 117.435,244.379 117.254 C 244.721 117.073,245.000 116.875,245.000 116.816 C 245.000 116.756,245.225 116.614,245.500 116.500 C 245.794 116.378,246.000 116.169,246.000 115.993 C 246.000 115.645,244.249 113.667,243.196 112.826 C 242.800 112.509,242.275 112.081,242.029 111.875 C 241.784 111.669,241.532 111.500,241.470 111.500 C 241.408 111.500,241.258 111.406,241.137 111.291 C 241.016 111.176,240.617 110.933,240.250 110.750 C 239.883 110.566,239.546 110.372,239.500 110.318 C 239.454 110.264,239.042 110.080,238.583 109.910 C 238.125 109.740,237.713 109.551,237.667 109.491 C 237.621 109.431,237.171 109.287,236.667 109.171 C 236.162 109.055,235.525 108.863,235.250 108.744 C 233.968 108.188,228.021 107.963,225.375 108.369 M265.417 108.439 C 265.142 108.479,264.767 108.579,264.583 108.661 C 264.400 108.743,263.669 108.933,262.958 109.083 C 262.248 109.233,261.667 109.412,261.667 109.480 C 261.667 109.548,261.221 109.737,260.675 109.901 C 260.130 110.064,259.661 110.255,259.634 110.325 C 259.606 110.396,259.246 110.616,258.833 110.816 C 257.820 111.305,257.108 111.708,256.821 111.954 C 256.690 112.066,256.366 112.347,256.101 112.579 C 255.835 112.810,255.562 113.000,255.494 113.000 C 255.259 113.000,252.417 115.968,251.833 116.822 C 251.512 117.292,251.175 117.771,251.083 117.887 C 250.579 118.520,249.304 121.040,249.001 122.000 C 248.871 122.412,248.711 122.788,248.646 122.834 C 248.500 122.939,248.000 125.530,248.000 126.185 C 248.000 126.450,247.925 126.667,247.833 126.667 C 247.728 126.667,247.667 127.778,247.667 129.667 C 247.667 131.556,247.728 132.667,247.833 132.667 C 247.925 132.667,248.000 132.883,248.000 133.148 C 248.000 133.803,248.500 136.394,248.646 136.499 C 248.711 136.545,248.871 136.921,249.001 137.333 C 249.304 138.293,250.579 140.813,251.083 141.447 C 251.175 141.562,251.512 142.041,251.833 142.511 C 252.417 143.366,255.259 146.333,255.494 146.333 C 255.562 146.333,255.835 146.523,256.101 146.755 C 256.366 146.987,256.690 147.268,256.821 147.380 C 257.108 147.625,257.820 148.028,258.833 148.518 C 259.246 148.717,259.606 148.938,259.634 149.008 C 259.661 149.078,260.130 149.270,260.675 149.433 C 261.221 149.596,261.667 149.785,261.667 149.854 C 261.667 149.922,262.248 150.100,262.958 150.250 C 263.669 150.400,264.430 150.612,264.650 150.720 C 265.236 151.008,273.362 150.997,273.458 150.708 C 273.497 150.594,273.723 150.500,273.962 150.500 C 274.496 150.500,276.552 149.998,276.667 149.840 C 276.712 149.776,277.162 149.591,277.667 149.429 C 278.171 149.266,278.621 149.076,278.667 149.007 C 278.712 148.937,279.087 148.718,279.500 148.520 C 280.719 147.933,281.470 147.447,282.296 146.708 C 282.527 146.502,282.765 146.333,282.826 146.333 C 283.206 146.333,286.881 142.303,287.084 141.664 C 287.142 141.482,287.259 141.333,287.345 141.333 C 287.820 141.333,287.390 140.682,286.574 140.167 C 286.067 139.846,285.557 139.499,285.443 139.397 C 285.328 139.294,284.982 139.080,284.674 138.921 C 284.366 138.761,283.962 138.489,283.776 138.316 C 283.590 138.142,283.343 138.000,283.227 138.000 C 283.111 138.000,282.957 137.905,282.883 137.789 C 282.810 137.673,282.432 137.429,282.044 137.247 C 281.655 137.065,281.336 136.859,281.335 136.788 C 281.326 136.158,279.989 136.333,279.693 137.002 C 279.570 137.280,279.382 137.599,279.276 137.712 C 279.170 137.825,278.881 138.187,278.634 138.519 C 277.986 139.387,276.889 140.500,276.681 140.500 C 276.583 140.500,276.409 140.650,276.295 140.833 C 276.180 141.017,276.011 141.169,275.918 141.171 C 275.826 141.174,275.455 141.399,275.095 141.671 C 274.735 141.944,274.360 142.167,274.262 142.168 C 274.164 142.168,273.858 142.290,273.583 142.439 C 271.952 143.321,265.000 143.387,265.000 142.520 C 265.000 142.453,264.625 142.264,264.167 142.100 C 263.708 141.935,263.333 141.741,263.333 141.670 C 263.333 141.599,263.127 141.454,262.875 141.349 C 262.623 141.244,262.107 140.872,261.729 140.522 C 261.351 140.171,260.920 139.838,260.771 139.781 C 260.622 139.724,260.500 139.579,260.500 139.459 C 260.500 139.339,260.294 139.040,260.042 138.795 C 259.262 138.037,258.980 137.660,258.717 137.027 C 258.577 136.691,258.414 136.379,258.355 136.333 C 257.851 135.943,256.833 132.594,256.833 131.325 C 256.833 130.963,256.758 130.667,256.667 130.667 C 256.574 130.667,256.500 130.222,256.500 129.667 C 256.500 129.111,256.574 128.667,256.667 128.667 C 256.758 128.667,256.833 128.370,256.833 128.008 C 256.833 126.749,257.842 123.415,258.349 123.000 C 258.405 122.954,258.591 122.619,258.762 122.256 C 259.096 121.544,259.327 121.233,260.042 120.538 C 260.294 120.293,260.500 119.994,260.500 119.874 C 260.500 119.754,260.622 119.609,260.771 119.552 C 260.920 119.495,261.351 119.162,261.729 118.812 C 262.107 118.461,262.623 118.089,262.875 117.984 C 263.127 117.879,263.333 117.735,263.333 117.663 C 263.333 117.592,263.708 117.399,264.167 117.234 C 264.625 117.069,265.000 116.880,265.000 116.814 C 265.000 115.947,271.952 116.012,273.583 116.894 C 273.858 117.043,274.164 117.165,274.262 117.166 C 274.360 117.166,274.735 117.390,275.095 117.662 C 275.455 117.934,275.826 118.159,275.918 118.162 C 276.011 118.165,276.180 118.317,276.295 118.500 C 276.409 118.683,276.583 118.833,276.681 118.833 C 276.889 118.833,277.986 119.946,278.634 120.815 C 278.881 121.146,279.170 121.509,279.276 121.621 C 279.382 121.734,279.570 122.053,279.693 122.332 C 279.989 123.001,281.326 123.175,281.335 122.546 C 281.336 122.475,281.655 122.268,282.044 122.086 C 282.432 121.904,282.810 121.660,282.883 121.544 C 282.957 121.428,283.111 121.333,283.227 121.333 C 283.343 121.333,283.590 121.191,283.776 121.018 C 283.962 120.844,284.366 120.572,284.674 120.413 C 284.982 120.254,285.328 120.039,285.443 119.937 C 285.557 119.834,286.067 119.487,286.574 119.167 C 287.390 118.651,287.820 118.000,287.345 118.000 C 287.259 118.000,287.142 117.851,287.084 117.669 C 286.881 117.031,283.206 113.000,282.826 113.000 C 282.765 113.000,282.527 112.831,282.296 112.625 C 281.470 111.886,280.719 111.400,279.500 110.813 C 279.087 110.615,278.712 110.396,278.667 110.326 C 278.621 110.257,278.171 110.067,277.667 109.905 C 277.162 109.742,276.712 109.557,276.667 109.494 C 276.552 109.335,274.496 108.833,273.962 108.833 C 273.723 108.833,273.497 108.740,273.459 108.626 C 273.390 108.419,266.628 108.262,265.417 108.439 M50.151 109.667 C 50.033 110.125,49.882 110.500,49.815 110.500 C 49.748 110.500,49.564 110.894,49.405 111.375 C 49.247 111.856,49.068 112.287,49.007 112.333 C 48.946 112.379,48.757 112.866,48.587 113.415 C 48.416 113.964,48.177 114.513,48.055 114.635 C 47.933 114.757,47.831 114.983,47.828 115.137 C 47.825 115.291,47.638 115.792,47.413 116.250 C 47.188 116.708,47.002 117.171,47.002 117.278 C 47.001 117.385,46.812 117.847,46.582 118.304 C 46.352 118.762,46.118 119.368,46.061 119.651 C 46.005 119.935,45.897 120.167,45.822 120.167 C 45.748 120.167,45.553 120.617,45.390 121.167 C 45.226 121.717,45.043 122.167,44.981 122.167 C 44.920 122.167,44.735 122.617,44.570 123.167 C 44.405 123.717,44.219 124.167,44.157 124.167 C 44.095 124.167,43.918 124.617,43.763 125.167 C 43.609 125.717,43.412 126.167,43.325 126.167 C 43.238 126.167,43.167 126.291,43.167 126.442 C 43.167 126.594,42.951 127.175,42.688 127.734 C 42.425 128.293,42.156 128.994,42.091 129.292 C 42.027 129.590,41.916 129.833,41.846 129.833 C 41.777 129.833,41.583 130.283,41.417 130.833 C 41.250 131.383,41.063 131.833,41.000 131.833 C 40.938 131.833,40.747 132.321,40.577 132.917 C 40.407 133.512,40.210 134.000,40.140 134.000 C 40.070 134.000,39.929 134.319,39.826 134.708 C 39.724 135.098,39.542 135.569,39.423 135.755 C 39.304 135.942,39.071 136.523,38.906 137.047 C 38.741 137.571,38.544 138.000,38.470 138.000 C 38.395 138.000,38.333 138.111,38.333 138.246 C 38.333 138.381,38.108 138.983,37.833 139.583 C 37.558 140.184,37.333 140.769,37.333 140.884 C 37.333 140.999,37.232 141.240,37.107 141.421 C 36.983 141.602,36.747 142.162,36.583 142.667 C 36.419 143.171,36.231 143.621,36.167 143.667 C 36.102 143.712,35.916 144.162,35.753 144.667 C 35.589 145.171,35.396 145.660,35.322 145.754 C 35.248 145.848,35.062 146.298,34.908 146.754 C 34.754 147.210,34.577 147.621,34.515 147.667 C 34.453 147.712,34.296 148.087,34.167 148.500 C 34.037 148.912,33.872 149.291,33.801 149.342 C 33.730 149.392,33.623 149.674,33.564 149.969 L 33.457 150.505 38.187 150.461 L 42.917 150.417 43.167 149.667 C 43.304 149.254,43.499 148.829,43.600 148.722 C 43.700 148.615,43.879 148.184,43.996 147.764 C 44.114 147.344,44.265 147.000,44.333 147.000 C 44.401 147.000,44.551 146.662,44.667 146.250 C 44.782 145.837,44.934 145.500,45.004 145.500 C 45.073 145.500,45.181 145.294,45.242 145.042 C 45.303 144.790,45.505 144.265,45.691 143.875 L 46.030 143.167 55.330 143.167 L 64.630 143.167 64.738 143.745 C 64.798 144.063,64.941 144.419,65.056 144.536 C 65.171 144.654,65.400 145.181,65.565 145.708 C 65.730 146.235,65.925 146.704,66.000 146.750 C 66.075 146.796,66.266 147.246,66.424 147.750 C 66.583 148.254,66.761 148.667,66.820 148.667 C 66.879 148.667,67.031 149.023,67.158 149.458 C 67.474 150.545,67.219 150.495,72.386 150.497 C 77.540 150.500,77.054 150.612,76.739 149.500 C 76.687 149.317,76.586 149.167,76.516 149.167 C 76.445 149.167,76.247 148.679,76.077 148.083 C 75.907 147.487,75.711 147.000,75.642 147.000 C 75.573 147.000,75.391 146.550,75.237 146.000 C 75.082 145.450,74.905 145.000,74.843 145.000 C 74.781 145.000,74.595 144.550,74.430 144.000 C 74.265 143.450,74.080 143.000,74.018 143.000 C 73.957 143.000,73.805 142.644,73.682 142.208 C 73.559 141.773,73.366 141.267,73.254 141.083 C 73.142 140.900,72.953 140.450,72.833 140.083 C 72.714 139.717,72.521 139.267,72.406 139.083 C 72.290 138.900,72.102 138.431,71.988 138.042 C 71.874 137.652,71.734 137.333,71.677 137.333 C 71.620 137.333,71.472 136.977,71.349 136.542 C 71.226 136.106,71.033 135.600,70.921 135.417 C 70.809 135.233,70.583 134.671,70.418 134.167 C 70.253 133.662,70.065 133.212,70.000 133.167 C 69.935 133.121,69.748 132.671,69.584 132.167 C 69.420 131.662,69.184 131.102,69.059 130.921 C 68.935 130.740,68.833 130.485,68.833 130.354 C 68.833 130.223,68.608 129.639,68.333 129.057 C 68.058 128.475,67.833 127.887,67.833 127.750 C 67.833 127.612,67.764 127.500,67.680 127.500 C 67.596 127.500,67.475 127.256,67.412 126.958 C 67.349 126.660,67.132 126.079,66.930 125.667 C 66.727 125.254,66.463 124.560,66.342 124.125 C 66.222 123.690,66.068 123.333,66.001 123.333 C 65.934 123.333,65.745 122.902,65.580 122.375 C 65.416 121.848,65.233 121.379,65.172 121.333 C 65.112 121.287,64.929 120.819,64.766 120.292 C 64.603 119.765,64.410 119.333,64.339 119.333 C 64.267 119.333,64.166 119.120,64.113 118.858 C 64.061 118.597,63.835 117.978,63.612 117.483 C 63.389 116.988,63.149 116.396,63.080 116.167 C 62.837 115.359,62.381 115.303,61.723 116.000 C 61.463 116.275,61.195 116.500,61.125 116.500 C 61.056 116.500,60.708 116.800,60.353 117.167 C 59.997 117.533,59.647 117.833,59.574 117.833 C 59.502 117.833,59.119 118.171,58.724 118.583 C 58.329 118.996,57.961 119.333,57.907 119.333 C 57.853 119.333,57.321 119.764,56.725 120.291 C 55.501 121.372,55.483 121.474,56.235 123.071 C 56.455 123.536,56.719 124.235,56.823 124.625 C 56.928 125.015,57.071 125.333,57.143 125.333 C 57.215 125.333,57.375 125.708,57.500 126.167 C 57.625 126.625,57.776 127.000,57.837 127.000 C 57.897 127.000,58.045 127.319,58.166 127.708 C 58.287 128.098,58.475 128.567,58.584 128.750 C 58.693 128.933,58.917 129.496,59.082 130.000 C 59.247 130.504,59.435 130.954,59.500 131.000 C 59.565 131.046,59.751 131.496,59.914 132.000 C 60.077 132.504,60.277 133.001,60.358 133.104 C 60.439 133.206,60.619 133.675,60.759 134.145 C 60.899 134.615,61.085 135.000,61.173 135.000 C 61.261 135.000,61.333 135.150,61.333 135.333 C 61.333 135.661,61.222 135.667,55.167 135.667 C 49.796 135.667,49.000 135.634,49.000 135.417 C 49.000 135.279,49.072 135.167,49.160 135.167 C 49.248 135.167,49.400 134.870,49.498 134.507 C 49.596 134.144,49.735 133.811,49.807 133.766 C 49.879 133.722,50.083 133.231,50.261 132.676 C 50.438 132.121,50.630 131.667,50.688 131.667 C 50.745 131.667,50.932 131.179,51.102 130.583 C 51.273 129.987,51.463 129.500,51.524 129.500 C 51.585 129.500,51.765 129.087,51.924 128.583 C 52.083 128.079,52.262 127.667,52.323 127.667 C 52.384 127.667,52.573 127.179,52.744 126.583 C 52.914 125.987,53.107 125.500,53.171 125.500 C 53.236 125.500,53.416 125.050,53.570 124.500 C 53.724 123.950,53.916 123.500,53.995 123.500 C 54.075 123.500,54.192 123.265,54.255 122.977 C 54.318 122.690,54.541 122.109,54.750 121.686 C 54.960 121.263,55.183 120.673,55.246 120.375 C 55.308 120.077,55.417 119.833,55.487 119.833 C 55.557 119.833,55.750 119.383,55.917 118.833 C 56.083 118.283,56.271 117.833,56.333 117.833 C 56.395 117.833,56.586 117.346,56.756 116.750 C 56.927 116.154,57.123 115.667,57.193 115.667 C 57.263 115.667,57.404 115.348,57.507 114.958 C 57.610 114.569,57.791 114.098,57.910 113.911 C 58.029 113.725,58.262 113.144,58.427 112.620 C 58.592 112.096,58.775 111.667,58.834 111.667 C 58.892 111.667,59.042 111.292,59.167 110.833 C 59.291 110.375,59.446 110.000,59.511 110.000 C 59.575 110.000,59.666 109.869,59.712 109.708 C 59.758 109.548,59.850 109.285,59.916 109.125 C 60.028 108.851,59.740 108.833,55.200 108.833 L 50.364 108.833 50.151 109.667 M78.667 129.667 L 78.667 150.500 83.083 150.500 L 87.500 150.500 87.500 133.333 L 87.500 116.167 97.417 116.167 L 107.333 116.167 107.333 112.500 L 107.333 108.833 93.000 108.833 L 78.667 108.833 78.667 129.667 M109.500 129.667 L 109.500 150.500 123.667 150.500 L 137.833 150.500 137.833 147.000 L 137.833 143.500 128.000 143.500 L 118.167 143.500 118.167 129.833 L 118.167 116.167 128.000 116.167 L 137.833 116.167 137.833 112.500 L 137.833 108.833 123.667 108.833 L 109.500 108.833 109.500 129.667 M141.167 112.500 L 141.167 116.167 147.250 116.167 L 153.333 116.167 153.333 133.333 L 153.333 150.500 157.833 150.500 L 162.333 150.500 162.333 129.667 L 162.333 108.833 151.750 108.833 L 141.167 108.833 141.167 112.500 M163.167 109.083 C 163.167 109.221,163.227 109.333,163.300 109.333 C 163.374 109.333,163.569 109.708,163.734 110.167 C 163.899 110.625,164.086 111.000,164.150 111.000 C 164.215 111.000,164.402 111.375,164.567 111.833 C 164.732 112.292,164.922 112.667,164.990 112.667 C 165.058 112.667,165.204 112.967,165.314 113.333 C 165.423 113.700,165.571 114.000,165.640 114.000 C 165.710 114.000,165.902 114.375,166.067 114.833 C 166.232 115.292,166.434 115.667,166.517 115.667 C 166.599 115.667,166.667 115.779,166.667 115.917 C 166.667 116.132,167.213 116.167,170.583 116.167 L 174.500 116.167 174.500 112.500 L 174.500 108.833 168.833 108.833 C 163.907 108.833,163.167 108.866,163.167 109.083 M176.333 108.896 C 176.333 109.112,176.861 110.167,176.969 110.167 C 177.042 110.167,177.236 110.542,177.400 111.000 C 177.565 111.458,177.749 111.834,177.808 111.834 C 177.868 111.834,178.055 112.172,178.225 112.584 C 178.394 112.996,178.589 113.333,178.656 113.333 C 178.724 113.333,178.880 113.637,179.003 114.008 C 179.125 114.380,179.285 114.720,179.358 114.765 C 179.431 114.811,179.622 115.126,179.782 115.465 C 179.942 115.805,180.131 116.158,180.203 116.250 C 180.336 116.420,181.170 117.990,182.041 119.708 C 182.308 120.235,182.580 120.667,182.647 120.667 C 182.713 120.667,182.902 121.042,183.067 121.500 C 183.232 121.958,183.416 122.334,183.475 122.334 C 183.535 122.334,183.722 122.672,183.892 123.084 C 184.061 123.496,184.255 123.833,184.323 123.833 C 184.391 123.833,184.546 124.133,184.667 124.500 C 184.788 124.867,184.935 125.167,184.995 125.167 C 185.054 125.167,185.242 125.485,185.411 125.875 C 185.581 126.265,185.765 126.621,185.820 126.667 C 185.874 126.712,186.256 127.424,186.668 128.248 C 187.080 129.073,187.510 129.847,187.625 129.969 C 187.740 130.091,187.833 130.280,187.833 130.390 C 187.833 131.371,189.133 132.127,189.599 131.417 C 189.749 131.188,189.937 131.000,190.018 131.000 C 190.176 131.000,193.296 128.443,193.602 128.063 C 193.703 127.937,193.871 127.833,193.973 127.833 C 194.075 127.833,194.280 127.649,194.428 127.423 C 194.576 127.198,194.840 126.968,195.015 126.912 C 195.453 126.773,195.300 125.000,194.850 125.000 C 194.785 125.000,194.598 124.625,194.433 124.167 C 194.268 123.708,194.066 123.333,193.983 123.333 C 193.901 123.333,193.833 123.254,193.833 123.157 C 193.833 123.060,193.533 122.352,193.167 121.583 C 192.800 120.815,192.500 120.107,192.500 120.010 C 192.500 119.913,192.430 119.833,192.345 119.833 C 192.259 119.833,192.141 119.665,192.081 119.458 C 192.022 119.252,191.004 117.127,189.820 114.736 C 188.636 112.345,187.667 110.301,187.667 110.194 C 187.667 110.087,187.597 110.000,187.513 110.000 C 187.428 110.000,187.273 109.737,187.167 109.417 L 186.974 108.833 181.654 108.833 C 178.728 108.833,176.333 108.862,176.333 108.896 M204.616 109.333 C 204.512 109.608,204.381 109.833,204.324 109.833 C 204.267 109.833,204.081 110.246,203.909 110.750 C 203.738 111.254,203.550 111.667,203.492 111.667 C 203.434 111.667,203.288 111.967,203.167 112.333 C 203.046 112.700,202.891 113.000,202.823 113.000 C 202.756 113.000,202.565 113.375,202.400 113.833 C 202.236 114.292,202.048 114.667,201.984 114.667 C 201.919 114.667,201.732 115.042,201.567 115.500 C 201.402 115.958,201.213 116.333,201.147 116.333 C 201.081 116.333,200.902 116.708,200.750 117.167 C 200.598 117.625,200.419 118.000,200.353 118.000 C 200.287 118.000,200.098 118.375,199.933 118.833 C 199.768 119.292,199.581 119.667,199.516 119.667 C 199.452 119.667,199.264 120.042,199.100 120.500 C 198.935 120.958,198.744 121.333,198.677 121.333 C 198.609 121.333,198.454 121.633,198.333 122.000 C 198.212 122.367,198.058 122.667,197.990 122.667 C 197.922 122.667,197.732 123.042,197.567 123.500 C 197.402 123.958,197.217 124.333,197.156 124.333 C 197.095 124.333,196.911 124.690,196.746 125.125 C 196.582 125.560,196.396 125.954,196.333 126.000 C 196.271 126.046,196.085 126.440,195.920 126.875 C 195.756 127.310,195.557 127.667,195.477 127.667 C 195.398 127.667,195.331 127.760,195.329 127.875 C 195.327 127.990,195.027 128.683,194.662 129.415 C 194.298 130.147,194.000 130.841,194.000 130.956 C 194.000 131.072,193.937 131.167,193.860 131.167 C 193.783 131.167,193.630 131.467,193.520 131.833 C 193.410 132.200,193.263 132.500,193.193 132.500 C 193.123 132.500,192.931 132.875,192.766 133.333 C 192.601 133.792,192.411 134.167,192.343 134.167 C 192.275 134.167,192.118 134.477,191.993 134.855 C 191.868 135.234,191.664 135.646,191.539 135.770 C 191.252 136.057,191.267 135.571,191.303 143.625 L 191.333 150.500 195.917 150.500 L 200.500 150.500 200.507 143.625 L 200.514 136.750 200.912 136.000 C 201.131 135.587,201.437 134.987,201.591 134.667 C 201.745 134.346,201.923 134.046,201.987 134.000 C 202.050 133.954,202.208 133.654,202.337 133.333 C 202.466 133.012,202.743 132.496,202.952 132.185 C 203.162 131.874,203.333 131.523,203.333 131.405 C 203.333 131.287,203.427 131.091,203.542 130.970 C 203.657 130.849,203.901 130.450,204.084 130.083 C 204.267 129.717,204.464 129.379,204.523 129.333 C 204.581 129.287,204.753 128.987,204.904 128.667 C 205.056 128.346,205.551 127.408,206.005 126.583 C 206.459 125.758,206.992 124.746,207.189 124.333 C 207.386 123.921,207.600 123.546,207.663 123.500 C 207.727 123.454,207.919 123.098,208.089 122.708 C 208.258 122.319,208.446 122.000,208.505 122.000 C 208.565 122.000,208.714 121.696,208.836 121.325 C 208.959 120.954,209.139 120.598,209.238 120.534 C 209.397 120.430,209.941 119.447,211.118 117.139 C 211.321 116.742,211.552 116.340,211.631 116.246 C 211.711 116.152,211.916 115.759,212.087 115.371 C 212.258 114.984,212.446 114.667,212.505 114.667 C 212.565 114.667,212.714 114.363,212.836 113.992 C 212.959 113.621,213.146 113.264,213.254 113.200 C 213.361 113.136,213.583 112.727,213.747 112.292 C 213.911 111.856,214.110 111.500,214.189 111.500 C 214.269 111.500,214.333 111.413,214.333 111.306 C 214.333 111.200,214.550 110.768,214.815 110.348 C 215.081 109.927,215.348 109.415,215.410 109.208 L 215.522 108.833 210.163 108.833 L 204.804 108.833 204.616 109.333 M303.763 109.833 C 303.609 110.383,303.421 110.833,303.345 110.833 C 303.270 110.833,303.068 111.321,302.898 111.917 C 302.727 112.513,302.531 113.000,302.463 113.000 C 302.394 113.000,302.253 113.337,302.149 113.750 C 302.045 114.162,301.898 114.500,301.822 114.500 C 301.746 114.500,301.558 114.950,301.403 115.500 C 301.249 116.050,301.070 116.500,301.005 116.500 C 300.940 116.500,300.747 116.987,300.577 117.583 C 300.407 118.179,300.210 118.667,300.140 118.667 C 300.070 118.667,299.904 119.023,299.770 119.458 C 299.637 119.894,299.380 120.550,299.200 120.917 C 299.020 121.283,298.820 121.827,298.756 122.125 C 298.692 122.423,298.575 122.667,298.495 122.667 C 298.416 122.667,298.224 123.117,298.070 123.667 C 297.916 124.217,297.730 124.667,297.658 124.667 C 297.586 124.667,297.476 124.910,297.414 125.208 C 297.351 125.506,297.208 125.900,297.095 126.083 C 296.982 126.267,296.746 126.829,296.571 127.333 C 296.396 127.837,296.207 128.287,296.151 128.333 C 296.095 128.379,295.914 128.829,295.749 129.333 C 295.584 129.837,295.354 130.400,295.239 130.583 C 295.123 130.767,294.935 131.235,294.821 131.625 C 294.707 132.015,294.567 132.333,294.510 132.333 C 294.453 132.333,294.305 132.690,294.182 133.125 C 294.059 133.560,293.868 134.067,293.757 134.250 C 293.647 134.433,293.413 134.996,293.238 135.500 C 293.063 136.004,292.873 136.454,292.817 136.500 C 292.761 136.546,292.618 136.883,292.500 137.250 C 292.382 137.617,292.239 137.954,292.183 138.000 C 292.127 138.046,291.937 138.496,291.762 139.000 C 291.587 139.504,291.353 140.067,291.243 140.250 C 291.132 140.433,290.941 140.940,290.818 141.375 C 290.695 141.810,290.547 142.167,290.490 142.167 C 290.433 142.167,290.293 142.485,290.179 142.875 C 290.065 143.265,289.877 143.733,289.761 143.917 C 289.646 144.100,289.416 144.662,289.251 145.167 C 289.086 145.671,288.903 146.121,288.844 146.167 C 288.785 146.212,288.590 146.700,288.410 147.250 C 288.230 147.800,287.990 148.349,287.875 148.470 C 287.760 148.591,287.667 148.821,287.667 148.980 C 287.667 149.139,287.557 149.415,287.422 149.593 C 286.740 150.495,286.763 150.500,291.837 150.500 L 296.507 150.500 296.709 150.042 C 296.819 149.790,296.952 149.546,297.003 149.500 C 297.054 149.454,297.240 148.985,297.416 148.458 C 297.592 147.931,297.783 147.500,297.841 147.500 C 297.900 147.500,298.083 147.050,298.250 146.500 C 298.417 145.950,298.606 145.500,298.671 145.500 C 298.737 145.500,298.885 145.162,299.000 144.750 C 299.115 144.337,299.274 144.000,299.352 144.000 C 299.430 144.000,299.541 143.813,299.598 143.583 L 299.703 143.167 309.018 143.167 C 317.778 143.167,318.333 143.184,318.334 143.458 C 318.335 143.619,318.485 143.975,318.667 144.250 C 318.849 144.525,318.998 144.842,318.999 144.954 C 319.000 145.066,319.225 145.650,319.500 146.250 C 319.775 146.850,320.000 147.434,320.001 147.546 C 320.002 147.658,320.151 147.975,320.333 148.250 C 320.515 148.525,320.665 148.876,320.666 149.030 C 320.666 149.184,320.771 149.414,320.899 149.542 C 321.026 149.669,321.159 149.918,321.193 150.095 C 321.251 150.399,330.667 150.727,330.667 150.425 C 330.667 150.223,330.115 148.741,330.012 148.667 C 329.948 148.621,329.762 148.152,329.599 147.625 C 329.436 147.098,329.252 146.667,329.191 146.667 C 329.129 146.667,328.940 146.179,328.769 145.583 C 328.598 144.987,328.409 144.500,328.349 144.500 C 328.289 144.500,328.141 144.167,328.021 143.761 C 327.901 143.354,327.670 142.773,327.507 142.469 C 327.344 142.165,327.158 141.673,327.092 141.375 C 327.027 141.077,326.916 140.833,326.846 140.833 C 326.777 140.833,326.583 140.383,326.417 139.833 C 326.250 139.283,326.063 138.833,326.000 138.833 C 325.937 138.833,325.749 138.380,325.581 137.825 C 325.413 137.271,325.217 136.781,325.145 136.737 C 325.073 136.692,324.889 136.208,324.735 135.661 C 324.582 135.114,324.405 134.667,324.343 134.667 C 324.281 134.667,324.095 134.217,323.930 133.667 C 323.765 133.117,323.574 132.667,323.504 132.667 C 323.434 132.667,323.251 132.217,323.097 131.667 C 322.942 131.117,322.759 130.667,322.690 130.667 C 322.620 130.667,322.467 130.292,322.349 129.833 C 322.232 129.375,322.078 129.000,322.007 129.000 C 321.937 129.000,321.745 128.569,321.580 128.042 C 321.416 127.515,321.233 127.046,321.172 127.000 C 321.112 126.954,320.929 126.485,320.766 125.958 C 320.603 125.431,320.419 125.000,320.357 125.000 C 320.296 125.000,320.106 124.513,319.936 123.917 C 319.765 123.321,319.565 122.833,319.491 122.833 C 319.417 122.833,319.233 122.405,319.080 121.882 C 318.928 121.359,318.698 120.780,318.569 120.595 C 318.439 120.410,318.333 120.165,318.333 120.050 C 318.333 119.936,318.108 119.350,317.833 118.750 C 317.558 118.150,317.333 117.554,317.333 117.426 C 317.333 117.299,317.270 117.169,317.192 117.139 C 317.114 117.108,316.939 116.746,316.803 116.333 C 316.462 115.299,316.180 115.315,314.881 116.446 C 314.268 116.980,313.650 117.513,313.508 117.630 C 313.366 117.748,312.855 118.198,312.373 118.630 C 311.891 119.063,311.253 119.615,310.956 119.858 C 310.660 120.101,310.160 120.521,309.846 120.791 L 309.276 121.283 309.493 122.058 C 309.612 122.484,309.762 122.833,309.825 122.833 C 309.888 122.833,310.075 123.265,310.240 123.792 C 310.406 124.319,310.645 124.898,310.771 125.079 C 310.897 125.260,311.000 125.501,311.000 125.616 C 311.000 125.731,311.225 126.316,311.500 126.917 C 311.775 127.517,312.000 128.119,312.000 128.254 C 312.000 128.389,312.063 128.500,312.140 128.500 C 312.217 128.500,312.375 128.819,312.491 129.208 C 312.606 129.598,312.876 130.292,313.090 130.750 C 313.303 131.208,313.529 131.790,313.591 132.042 C 313.652 132.294,313.753 132.500,313.815 132.500 C 313.877 132.500,314.029 132.856,314.153 133.292 C 314.277 133.727,314.518 134.317,314.689 134.603 C 315.358 135.722,315.656 135.667,308.917 135.667 C 305.571 135.667,302.834 135.610,302.836 135.542 C 302.839 135.358,303.308 134.042,303.490 133.706 C 303.849 133.041,304.480 131.535,304.676 130.875 C 304.792 130.485,304.933 130.167,304.990 130.167 C 305.047 130.167,305.195 129.810,305.319 129.375 C 305.444 128.940,305.675 128.358,305.833 128.083 C 305.992 127.808,306.223 127.227,306.347 126.792 C 306.471 126.356,306.620 126.000,306.677 126.000 C 306.734 126.000,306.921 125.531,307.093 124.958 C 307.264 124.385,307.498 123.821,307.613 123.703 C 307.727 123.585,307.869 123.229,307.929 122.911 C 307.988 122.593,308.097 122.333,308.170 122.333 C 308.243 122.333,308.436 121.902,308.599 121.375 C 308.762 120.848,308.946 120.379,309.007 120.333 C 309.068 120.287,309.252 119.837,309.417 119.333 C 309.581 118.829,309.772 118.379,309.841 118.333 C 309.910 118.287,310.092 117.819,310.245 117.292 C 310.398 116.765,310.578 116.333,310.645 116.333 C 310.712 116.333,310.907 115.846,311.077 115.250 C 311.247 114.654,311.446 114.167,311.518 114.167 C 311.590 114.167,311.776 113.717,311.930 113.167 C 312.084 112.617,312.270 112.167,312.342 112.167 C 312.414 112.167,312.525 111.932,312.588 111.644 C 312.651 111.357,312.874 110.776,313.083 110.352 C 313.292 109.929,313.514 109.415,313.576 109.208 L 313.689 108.833 308.867 108.833 L 304.044 108.833 303.763 109.833 M332.500 129.667 L 332.500 150.500 336.917 150.500 L 341.333 150.500 341.333 133.317 L 341.333 116.134 346.958 116.210 C 352.237 116.282,353.833 116.419,353.833 116.800 C 353.833 116.865,354.077 117.026,354.375 117.156 C 354.970 117.418,355.683 118.110,356.122 118.854 C 356.278 119.118,356.454 119.333,356.513 119.333 C 356.573 119.333,356.755 119.690,356.917 120.125 C 357.080 120.560,357.272 120.992,357.344 121.085 C 358.001 121.933,357.337 125.915,356.356 127.009 C 356.206 127.176,355.864 127.580,355.597 127.906 C 355.329 128.233,355.008 128.500,354.883 128.500 C 354.758 128.500,354.613 128.612,354.561 128.749 C 354.439 129.066,352.990 129.500,352.053 129.500 C 351.657 129.500,351.333 129.575,351.333 129.667 C 351.333 129.774,349.691 129.833,346.739 129.833 L 342.144 129.833 342.256 130.208 C 342.318 130.415,342.505 130.808,342.672 131.083 C 342.840 131.358,343.263 132.146,343.613 132.833 C 343.963 133.521,344.330 134.136,344.429 134.200 C 344.527 134.264,344.708 134.621,344.831 134.992 C 344.953 135.363,345.106 135.667,345.171 135.667 C 345.235 135.667,345.417 136.004,345.574 136.417 C 345.732 136.829,345.924 137.167,346.001 137.167 C 346.078 137.167,346.227 137.429,346.333 137.750 L 346.526 138.333 350.305 138.330 C 353.960 138.328,356.024 138.117,356.561 137.693 C 356.665 137.611,357.031 137.453,357.375 137.342 C 357.719 137.231,358.000 137.084,358.000 137.014 C 358.000 136.944,358.304 136.786,358.675 136.664 C 359.046 136.541,359.402 136.361,359.466 136.262 C 359.531 136.164,359.837 135.942,360.148 135.769 C 360.811 135.399,361.017 135.228,362.316 133.973 C 362.853 133.453,363.395 132.797,363.520 132.514 C 363.646 132.231,363.803 132.000,363.870 132.000 C 363.937 132.000,364.116 131.756,364.269 131.458 C 364.422 131.160,364.597 130.879,364.658 130.833 C 364.719 130.787,364.873 130.487,365.000 130.167 C 365.127 129.846,365.288 129.543,365.358 129.495 C 365.503 129.394,366.000 127.575,366.000 127.146 C 366.000 126.989,366.094 126.830,366.208 126.792 C 366.481 126.701,366.511 120.551,366.240 120.369 C 366.142 120.304,365.966 119.811,365.849 119.273 C 365.731 118.736,365.454 117.938,365.234 117.499 C 365.014 117.061,364.833 116.619,364.833 116.517 C 364.833 116.416,364.767 116.333,364.687 116.333 C 364.606 116.333,364.448 116.110,364.335 115.838 C 364.222 115.565,364.007 115.196,363.857 115.017 C 363.706 114.838,363.396 114.450,363.167 114.155 C 362.481 113.272,361.551 112.333,361.361 112.333 C 361.263 112.333,361.123 112.227,361.050 112.098 C 360.880 111.799,359.361 110.751,358.871 110.595 C 358.667 110.531,358.500 110.422,358.500 110.355 C 358.500 110.288,358.106 110.094,357.625 109.925 C 357.144 109.756,356.665 109.551,356.561 109.471 C 355.851 108.921,354.134 108.839,343.292 108.836 L 332.500 108.833 332.500 129.667 M369.500 129.667 L 369.500 150.500 383.667 150.500 L 397.833 150.500 397.833 147.000 L 397.833 143.500 388.000 143.500 L 378.167 143.500 378.167 129.833 L 378.167 116.167 388.000 116.167 L 397.833 116.167 397.833 112.500 L 397.833 108.833 383.667 108.833 L 369.500 108.833 369.500 129.667 M88.761 126.369 C 88.826 126.572,89.131 127.241,89.439 127.856 C 89.748 128.470,90.000 129.048,90.000 129.139 C 90.000 129.231,90.056 129.331,90.125 129.361 C 90.286 129.433,91.500 131.886,91.500 132.140 C 91.500 132.246,91.567 132.333,91.650 132.333 C 91.732 132.333,91.935 132.708,92.100 133.167 L 92.399 134.000 97.366 134.000 L 102.333 134.000 102.333 130.000 L 102.333 126.000 95.489 126.000 L 88.644 126.000 88.761 126.369 M119.333 126.058 C 119.333 126.314,119.730 127.167,119.850 127.167 C 119.932 127.167,120.000 127.261,120.000 127.377 C 120.000 127.492,120.298 128.186,120.662 128.919 C 121.027 129.651,121.327 130.344,121.329 130.458 C 121.331 130.573,121.403 130.667,121.489 130.667 C 121.574 130.667,121.692 130.835,121.749 131.042 C 121.807 131.248,122.131 131.997,122.469 132.707 L 123.083 133.997 128.042 133.999 L 133.000 134.000 133.000 130.000 L 133.000 126.000 126.167 126.000 C 122.408 126.000,119.333 126.026,119.333 126.058 M379.333 126.058 C 379.333 126.314,379.730 127.167,379.850 127.167 C 379.932 127.167,380.000 127.269,380.000 127.393 C 380.000 127.518,380.412 128.432,380.917 129.424 C 381.421 130.416,381.833 131.322,381.833 131.436 C 381.833 131.550,381.931 131.742,382.050 131.863 C 382.170 131.984,382.401 132.421,382.565 132.833 C 383.058 134.075,382.702 134.000,388.104 134.000 L 393.000 134.000 393.000 130.000 L 393.000 126.000 386.167 126.000 C 382.408 126.000,379.333 126.026,379.333 126.058 " stroke="none" fill="#241c24" fill-rule="evenodd"></path></g></svg>